<mxfile host="app.diagrams.net" modified="2021-10-23T22:37:18.490Z" agent="5.0 (X11)" etag="_LENXNRJ80sa3b5G1867" version="15.5.8" type="github">
  <diagram id="xWjAdbAsW0b8TVWCwPoB" name="Page-1">
    <mxGraphModel dx="798" dy="395" grid="1" gridSize="10" guides="1" tooltips="1" connect="1" arrows="1" fold="1" page="1" pageScale="1" pageWidth="850" pageHeight="1100" math="0" shadow="0">
      <root>
        <mxCell id="0" />
        <mxCell id="1" parent="0" />
        <mxCell id="W28iy7gMrVFxUGPAVqS1-1" value="User" style="rounded=0;whiteSpace=wrap;html=1;" parent="1" vertex="1">
          <mxGeometry x="255" y="290" width="80" height="30" as="geometry" />
        </mxCell>
        <mxCell id="MvDNVhAUVmvNC1ZQfT15-1" style="edgeStyle=orthogonalEdgeStyle;rounded=0;orthogonalLoop=1;jettySize=auto;html=1;entryX=0.5;entryY=1;entryDx=0;entryDy=0;" edge="1" parent="1" source="W28iy7gMrVFxUGPAVqS1-2" target="W28iy7gMrVFxUGPAVqS1-23">
          <mxGeometry relative="1" as="geometry" />
        </mxCell>
        <mxCell id="W28iy7gMrVFxUGPAVqS1-2" value="Event" style="rounded=0;whiteSpace=wrap;html=1;" parent="1" vertex="1">
          <mxGeometry x="252.5" y="510" width="85" height="30" as="geometry" />
        </mxCell>
        <mxCell id="W28iy7gMrVFxUGPAVqS1-24" style="edgeStyle=orthogonalEdgeStyle;rounded=0;orthogonalLoop=1;jettySize=auto;html=1;" parent="1" source="W28iy7gMrVFxUGPAVqS1-4" target="W28iy7gMrVFxUGPAVqS1-23" edge="1">
          <mxGeometry relative="1" as="geometry" />
        </mxCell>
        <mxCell id="W28iy7gMrVFxUGPAVqS1-4" value="Message" style="rounded=0;whiteSpace=wrap;html=1;" parent="1" vertex="1">
          <mxGeometry x="590" y="407.5" width="70" height="30" as="geometry" />
        </mxCell>
        <mxCell id="W28iy7gMrVFxUGPAVqS1-9" style="edgeStyle=orthogonalEdgeStyle;rounded=0;orthogonalLoop=1;jettySize=auto;html=1;" parent="1" source="W28iy7gMrVFxUGPAVqS1-5" target="W28iy7gMrVFxUGPAVqS1-2" edge="1">
          <mxGeometry relative="1" as="geometry" />
        </mxCell>
        <mxCell id="W28iy7gMrVFxUGPAVqS1-10" style="edgeStyle=orthogonalEdgeStyle;rounded=0;orthogonalLoop=1;jettySize=auto;html=1;entryX=0.5;entryY=1;entryDx=0;entryDy=0;" parent="1" source="W28iy7gMrVFxUGPAVqS1-5" target="W28iy7gMrVFxUGPAVqS1-1" edge="1">
          <mxGeometry relative="1" as="geometry" />
        </mxCell>
        <mxCell id="W28iy7gMrVFxUGPAVqS1-5" value="UserAtEvent" style="rounded=0;whiteSpace=wrap;html=1;" parent="1" vertex="1">
          <mxGeometry x="250" y="421" width="90" height="30" as="geometry" />
        </mxCell>
        <mxCell id="W28iy7gMrVFxUGPAVqS1-7" style="edgeStyle=orthogonalEdgeStyle;rounded=0;orthogonalLoop=1;jettySize=auto;html=1;exitX=0;exitY=0.5;exitDx=0;exitDy=0;entryX=1;entryY=0.5;entryDx=0;entryDy=0;" parent="1" source="W28iy7gMrVFxUGPAVqS1-6" target="W28iy7gMrVFxUGPAVqS1-1" edge="1">
          <mxGeometry relative="1" as="geometry" />
        </mxCell>
        <mxCell id="W28iy7gMrVFxUGPAVqS1-30" style="edgeStyle=orthogonalEdgeStyle;rounded=0;orthogonalLoop=1;jettySize=auto;html=1;" parent="1" source="W28iy7gMrVFxUGPAVqS1-6" target="W28iy7gMrVFxUGPAVqS1-23" edge="1">
          <mxGeometry relative="1" as="geometry">
            <Array as="points">
              <mxPoint x="505" y="305" />
            </Array>
          </mxGeometry>
        </mxCell>
        <mxCell id="W28iy7gMrVFxUGPAVqS1-6" value="UserInChatRoom" style="rounded=0;whiteSpace=wrap;html=1;" parent="1" vertex="1">
          <mxGeometry x="370" y="290" width="105" height="30" as="geometry" />
        </mxCell>
        <mxCell id="W28iy7gMrVFxUGPAVqS1-14" value="TopicTag" style="rounded=0;whiteSpace=wrap;html=1;" parent="1" vertex="1">
          <mxGeometry x="115" y="395" width="70" height="30" as="geometry" />
        </mxCell>
        <mxCell id="W28iy7gMrVFxUGPAVqS1-21" style="edgeStyle=orthogonalEdgeStyle;rounded=0;orthogonalLoop=1;jettySize=auto;html=1;entryX=0.5;entryY=1;entryDx=0;entryDy=0;" parent="1" source="W28iy7gMrVFxUGPAVqS1-15" target="W28iy7gMrVFxUGPAVqS1-14" edge="1">
          <mxGeometry relative="1" as="geometry" />
        </mxCell>
        <mxCell id="W28iy7gMrVFxUGPAVqS1-22" style="edgeStyle=orthogonalEdgeStyle;rounded=0;orthogonalLoop=1;jettySize=auto;html=1;" parent="1" source="W28iy7gMrVFxUGPAVqS1-15" target="W28iy7gMrVFxUGPAVqS1-2" edge="1">
          <mxGeometry relative="1" as="geometry" />
        </mxCell>
        <mxCell id="W28iy7gMrVFxUGPAVqS1-15" value="TopicTag-Event" style="rounded=0;whiteSpace=wrap;html=1;" parent="1" vertex="1">
          <mxGeometry x="110" y="510" width="80" height="30" as="geometry" />
        </mxCell>
        <mxCell id="W28iy7gMrVFxUGPAVqS1-19" style="edgeStyle=orthogonalEdgeStyle;rounded=0;orthogonalLoop=1;jettySize=auto;html=1;entryX=0;entryY=0.5;entryDx=0;entryDy=0;" parent="1" source="W28iy7gMrVFxUGPAVqS1-16" target="W28iy7gMrVFxUGPAVqS1-1" edge="1">
          <mxGeometry relative="1" as="geometry" />
        </mxCell>
        <mxCell id="W28iy7gMrVFxUGPAVqS1-20" style="edgeStyle=orthogonalEdgeStyle;rounded=0;orthogonalLoop=1;jettySize=auto;html=1;entryX=0.5;entryY=0;entryDx=0;entryDy=0;" parent="1" source="W28iy7gMrVFxUGPAVqS1-16" target="W28iy7gMrVFxUGPAVqS1-14" edge="1">
          <mxGeometry relative="1" as="geometry" />
        </mxCell>
        <mxCell id="W28iy7gMrVFxUGPAVqS1-16" value="TopicTag-&lt;br&gt;User" style="rounded=0;whiteSpace=wrap;html=1;" parent="1" vertex="1">
          <mxGeometry x="110" y="290" width="80" height="30" as="geometry" />
        </mxCell>
        <mxCell id="W28iy7gMrVFxUGPAVqS1-23" value="ChatRoom" style="rounded=0;whiteSpace=wrap;html=1;" parent="1" vertex="1">
          <mxGeometry x="460" y="407.5" width="90" height="30" as="geometry" />
        </mxCell>
        <mxCell id="W28iy7gMrVFxUGPAVqS1-33" style="edgeStyle=orthogonalEdgeStyle;rounded=0;orthogonalLoop=1;jettySize=auto;html=1;entryX=0.5;entryY=1;entryDx=0;entryDy=0;" parent="1" source="W28iy7gMrVFxUGPAVqS1-32" target="W28iy7gMrVFxUGPAVqS1-4" edge="1">
          <mxGeometry relative="1" as="geometry" />
        </mxCell>
        <mxCell id="W28iy7gMrVFxUGPAVqS1-32" value="Message&lt;br&gt;Files/Media" style="rounded=0;whiteSpace=wrap;html=1;" parent="1" vertex="1">
          <mxGeometry x="590" y="467.5" width="70" height="30" as="geometry" />
        </mxCell>
        <mxCell id="W28iy7gMrVFxUGPAVqS1-34" value="&lt;font style=&quot;font-size: 8px&quot;&gt;PathInFileSystem&lt;/font&gt;" style="ellipse;whiteSpace=wrap;html=1;" parent="1" vertex="1">
          <mxGeometry x="680" y="467.5" width="70" height="30" as="geometry" />
        </mxCell>
        <mxCell id="W28iy7gMrVFxUGPAVqS1-35" value="Text" style="ellipse;whiteSpace=wrap;html=1;fontSize=8;" parent="1" vertex="1">
          <mxGeometry x="670" y="360" width="50" height="25" as="geometry" />
        </mxCell>
        <mxCell id="W28iy7gMrVFxUGPAVqS1-37" value="IsOrganizer" style="ellipse;whiteSpace=wrap;html=1;fontSize=8;" parent="1" vertex="1">
          <mxGeometry x="415" y="240" width="60" height="30" as="geometry" />
        </mxCell>
        <mxCell id="W28iy7gMrVFxUGPAVqS1-38" value="Name" style="ellipse;whiteSpace=wrap;html=1;fontSize=8;" parent="1" vertex="1">
          <mxGeometry x="365" y="340" width="45" height="20" as="geometry" />
        </mxCell>
        <mxCell id="W28iy7gMrVFxUGPAVqS1-39" value="AboutInfo" style="ellipse;whiteSpace=wrap;html=1;fontSize=8;" parent="1" vertex="1">
          <mxGeometry x="360" y="360" width="50" height="20" as="geometry" />
        </mxCell>
        <mxCell id="W28iy7gMrVFxUGPAVqS1-41" value="Avatar(path in file system)" style="ellipse;whiteSpace=wrap;html=1;fontSize=8;" parent="1" vertex="1">
          <mxGeometry x="310" y="367.5" width="60" height="30" as="geometry" />
        </mxCell>
        <mxCell id="W28iy7gMrVFxUGPAVqS1-47" style="edgeStyle=orthogonalEdgeStyle;rounded=0;orthogonalLoop=1;jettySize=auto;html=1;exitX=0.25;exitY=1;exitDx=0;exitDy=0;entryX=0.25;entryY=0;entryDx=0;entryDy=0;fontSize=12;" parent="1" source="W28iy7gMrVFxUGPAVqS1-46" target="W28iy7gMrVFxUGPAVqS1-1" edge="1">
          <mxGeometry relative="1" as="geometry">
            <Array as="points">
              <mxPoint x="275" y="230" />
            </Array>
          </mxGeometry>
        </mxCell>
        <mxCell id="W28iy7gMrVFxUGPAVqS1-48" style="edgeStyle=orthogonalEdgeStyle;rounded=0;orthogonalLoop=1;jettySize=auto;html=1;exitX=0.75;exitY=1;exitDx=0;exitDy=0;entryX=0.75;entryY=0;entryDx=0;entryDy=0;fontSize=12;" parent="1" source="W28iy7gMrVFxUGPAVqS1-46" target="W28iy7gMrVFxUGPAVqS1-1" edge="1">
          <mxGeometry relative="1" as="geometry">
            <Array as="points">
              <mxPoint x="315" y="230" />
            </Array>
          </mxGeometry>
        </mxCell>
        <mxCell id="W28iy7gMrVFxUGPAVqS1-46" value="&lt;font style=&quot;font-size: 12px&quot;&gt;Friendship&lt;/font&gt;" style="rounded=0;whiteSpace=wrap;html=1;fontSize=8;" parent="1" vertex="1">
          <mxGeometry x="255" y="195" width="77.5" height="35" as="geometry" />
        </mxCell>
        <mxCell id="W28iy7gMrVFxUGPAVqS1-49" value="" style="endArrow=none;html=1;rounded=0;fontSize=12;entryX=0.5;entryY=1;entryDx=0;entryDy=0;exitX=0.5;exitY=0;exitDx=0;exitDy=0;" parent="1" source="W28iy7gMrVFxUGPAVqS1-6" target="W28iy7gMrVFxUGPAVqS1-37" edge="1">
          <mxGeometry width="50" height="50" relative="1" as="geometry">
            <mxPoint x="340" y="310" as="sourcePoint" />
            <mxPoint x="390" y="260" as="targetPoint" />
          </mxGeometry>
        </mxCell>
        <mxCell id="W28iy7gMrVFxUGPAVqS1-50" value="" style="endArrow=none;html=1;rounded=0;fontSize=12;entryX=1;entryY=1;entryDx=0;entryDy=0;exitX=0.5;exitY=0;exitDx=0;exitDy=0;" parent="1" source="W28iy7gMrVFxUGPAVqS1-41" target="W28iy7gMrVFxUGPAVqS1-1" edge="1">
          <mxGeometry width="50" height="50" relative="1" as="geometry">
            <mxPoint x="310" y="390" as="sourcePoint" />
            <mxPoint x="360" y="340" as="targetPoint" />
          </mxGeometry>
        </mxCell>
        <mxCell id="W28iy7gMrVFxUGPAVqS1-51" value="" style="endArrow=none;html=1;rounded=0;fontSize=12;entryX=1;entryY=1;entryDx=0;entryDy=0;exitX=0;exitY=0.5;exitDx=0;exitDy=0;" parent="1" source="W28iy7gMrVFxUGPAVqS1-39" target="W28iy7gMrVFxUGPAVqS1-1" edge="1">
          <mxGeometry width="50" height="50" relative="1" as="geometry">
            <mxPoint x="373.6177751571663" y="394.4785877757487" as="sourcePoint" />
            <mxPoint x="345" y="330" as="targetPoint" />
          </mxGeometry>
        </mxCell>
        <mxCell id="W28iy7gMrVFxUGPAVqS1-52" value="" style="endArrow=none;html=1;rounded=0;fontSize=12;entryX=1;entryY=1;entryDx=0;entryDy=0;exitX=0;exitY=0.5;exitDx=0;exitDy=0;" parent="1" source="W28iy7gMrVFxUGPAVqS1-38" target="W28iy7gMrVFxUGPAVqS1-1" edge="1">
          <mxGeometry width="50" height="50" relative="1" as="geometry">
            <mxPoint x="300" y="410" as="sourcePoint" />
            <mxPoint x="350" y="360" as="targetPoint" />
          </mxGeometry>
        </mxCell>
        <mxCell id="W28iy7gMrVFxUGPAVqS1-53" value="&lt;font style=&quot;font-size: 8px&quot;&gt;Name&lt;/font&gt;" style="ellipse;whiteSpace=wrap;html=1;fontSize=12;" parent="1" vertex="1">
          <mxGeometry x="50" y="399" width="40" height="22" as="geometry" />
        </mxCell>
        <mxCell id="W28iy7gMrVFxUGPAVqS1-54" value="" style="endArrow=none;html=1;rounded=0;fontSize=8;entryX=1;entryY=0.5;entryDx=0;entryDy=0;exitX=0;exitY=0.5;exitDx=0;exitDy=0;" parent="1" source="W28iy7gMrVFxUGPAVqS1-14" target="W28iy7gMrVFxUGPAVqS1-53" edge="1">
          <mxGeometry width="50" height="50" relative="1" as="geometry">
            <mxPoint x="40" y="500" as="sourcePoint" />
            <mxPoint x="90" y="450" as="targetPoint" />
          </mxGeometry>
        </mxCell>
        <mxCell id="W28iy7gMrVFxUGPAVqS1-56" value="Name" style="ellipse;whiteSpace=wrap;html=1;fontSize=8;" parent="1" vertex="1">
          <mxGeometry x="220" y="560" width="46" height="20" as="geometry" />
        </mxCell>
        <mxCell id="W28iy7gMrVFxUGPAVqS1-57" value="Description" style="ellipse;whiteSpace=wrap;html=1;fontSize=8;" parent="1" vertex="1">
          <mxGeometry x="260" y="570" width="50" height="20" as="geometry" />
        </mxCell>
        <mxCell id="W28iy7gMrVFxUGPAVqS1-58" value="ArrangmentTime" style="ellipse;whiteSpace=wrap;html=1;fontSize=8;" parent="1" vertex="1">
          <mxGeometry x="310" y="560" width="60" height="30" as="geometry" />
        </mxCell>
        <mxCell id="W28iy7gMrVFxUGPAVqS1-59" value="" style="endArrow=none;html=1;rounded=0;fontSize=8;entryX=0.5;entryY=1;entryDx=0;entryDy=0;exitX=0.5;exitY=0;exitDx=0;exitDy=0;" parent="1" source="W28iy7gMrVFxUGPAVqS1-56" target="W28iy7gMrVFxUGPAVqS1-2" edge="1">
          <mxGeometry width="50" height="50" relative="1" as="geometry">
            <mxPoint x="170" y="600" as="sourcePoint" />
            <mxPoint x="220" y="550" as="targetPoint" />
          </mxGeometry>
        </mxCell>
        <mxCell id="W28iy7gMrVFxUGPAVqS1-60" value="" style="endArrow=none;html=1;rounded=0;fontSize=8;entryX=0.5;entryY=1;entryDx=0;entryDy=0;exitX=0.5;exitY=0;exitDx=0;exitDy=0;" parent="1" source="W28iy7gMrVFxUGPAVqS1-57" target="W28iy7gMrVFxUGPAVqS1-2" edge="1">
          <mxGeometry width="50" height="50" relative="1" as="geometry">
            <mxPoint x="253" y="570" as="sourcePoint" />
            <mxPoint x="305" y="550" as="targetPoint" />
          </mxGeometry>
        </mxCell>
        <mxCell id="W28iy7gMrVFxUGPAVqS1-61" value="" style="endArrow=none;html=1;rounded=0;fontSize=8;entryX=0.5;entryY=1;entryDx=0;entryDy=0;exitX=0;exitY=0;exitDx=0;exitDy=0;" parent="1" source="W28iy7gMrVFxUGPAVqS1-58" target="W28iy7gMrVFxUGPAVqS1-2" edge="1">
          <mxGeometry width="50" height="50" relative="1" as="geometry">
            <mxPoint x="263" y="580" as="sourcePoint" />
            <mxPoint x="315" y="560" as="targetPoint" />
          </mxGeometry>
        </mxCell>
        <mxCell id="W28iy7gMrVFxUGPAVqS1-62" value="IsMediaAttached" style="ellipse;whiteSpace=wrap;html=1;fontSize=8;" parent="1" vertex="1">
          <mxGeometry x="690" y="382" width="70" height="27" as="geometry" />
        </mxCell>
        <mxCell id="W28iy7gMrVFxUGPAVqS1-63" value="" style="endArrow=none;html=1;rounded=0;fontSize=8;entryX=0;entryY=1;entryDx=0;entryDy=0;exitX=1;exitY=0;exitDx=0;exitDy=0;" parent="1" source="W28iy7gMrVFxUGPAVqS1-4" target="W28iy7gMrVFxUGPAVqS1-35" edge="1">
          <mxGeometry width="50" height="50" relative="1" as="geometry">
            <mxPoint x="550" y="410" as="sourcePoint" />
            <mxPoint x="600" y="360" as="targetPoint" />
          </mxGeometry>
        </mxCell>
        <mxCell id="W28iy7gMrVFxUGPAVqS1-64" value="" style="endArrow=none;html=1;rounded=0;fontSize=8;entryX=0;entryY=0.5;entryDx=0;entryDy=0;exitX=1;exitY=0;exitDx=0;exitDy=0;" parent="1" source="W28iy7gMrVFxUGPAVqS1-4" target="W28iy7gMrVFxUGPAVqS1-62" edge="1">
          <mxGeometry width="50" height="50" relative="1" as="geometry">
            <mxPoint x="660" y="480" as="sourcePoint" />
            <mxPoint x="710" y="430" as="targetPoint" />
          </mxGeometry>
        </mxCell>
        <mxCell id="W28iy7gMrVFxUGPAVqS1-65" value="" style="endArrow=none;html=1;rounded=0;fontSize=8;entryX=0;entryY=0.5;entryDx=0;entryDy=0;exitX=1;exitY=0.5;exitDx=0;exitDy=0;" parent="1" source="W28iy7gMrVFxUGPAVqS1-32" target="W28iy7gMrVFxUGPAVqS1-34" edge="1">
          <mxGeometry width="50" height="50" relative="1" as="geometry">
            <mxPoint x="620" y="560" as="sourcePoint" />
            <mxPoint x="670" y="510" as="targetPoint" />
          </mxGeometry>
        </mxCell>
      </root>
    </mxGraphModel>
  </diagram>
</mxfile>
